<?xml version="1.0" encoding="UTF-8" standalone="no"?><!DOCTYPE svg PUBLIC "-//W3C//DTD SVG 1.1//EN" "http://www.w3.org/Graphics/SVG/1.1/DTD/svg11.dtd"><!-- Generated by graphviz version 2.40.1 (20161225.0304)
 --><!-- Title: Database Structure Pages: 1 --><svg xmlns="http://www.w3.org/2000/svg" xmlns:xlink="http://www.w3.org/1999/xlink" width="810pt" height="594pt" viewBox="0.00 0.00 810.00 594.20">
<g id="graph0" class="graph" transform="scale(1 1) rotate(0) translate(4 590.2)">
<title>Database Structure</title>
<polygon fill="#ffffff" stroke="transparent" points="-4,4 -4,-590.2 806,-590.2 806,4 -4,4"/>
<text text-anchor="middle" x="401" y="-569.6" font-family="Helvetica,sans-Serif" font-size="14.00" fill="#000000">ER Diagram: ipsman</text>
<!-- containmentRel -->
<g id="node1" class="node">
<title>containmentRel</title>
<polygon fill="#dddddd" stroke="transparent" points="8,-511.8296 8,-533.8296 136,-533.8296 136,-511.8296 8,-511.8296"/>
<polygon fill="none" stroke="#000000" points="8,-511.8296 8,-533.8296 136,-533.8296 136,-511.8296 8,-511.8296"/>
<text text-anchor="start" x="27.676" y="-518.2296" font-family="Times,serif" font-size="14.00" fill="#000000">containmentRel</text>
<polygon fill="none" stroke="#000000" points="8,-489.8296 8,-511.8296 136,-511.8296 136,-489.8296 8,-489.8296"/>
<text text-anchor="start" x="10.6709" y="-497.2296" font-family="Times,serif" font-size="14.00" fill="#000000">idContainmentRel:</text>
<text text-anchor="start" x="117.2221" y="-497.2296" font-family="Helvetica,sans-Serif" font-style="oblique" font-size="10.00" fill="#000000">INT</text>
<polygon fill="none" stroke="#000000" points="8,-467.8296 8,-489.8296 136,-489.8296 136,-467.8296 8,-467.8296"/>
<text text-anchor="start" x="28.9521" y="-475.2296" font-family="Times,serif" font-size="14.00" fill="#000000">idContainer:</text>
<text text-anchor="start" x="98.9409" y="-475.2296" font-family="Helvetica,sans-Serif" font-style="oblique" font-size="10.00" fill="#000000">INT</text>
<polygon fill="none" stroke="#000000" points="8,-445.8296 8,-467.8296 136,-467.8296 136,-445.8296 8,-445.8296"/>
<text text-anchor="start" x="28.1751" y="-453.2296" font-family="Times,serif" font-size="14.00" fill="#000000">idContainee:</text>
<text text-anchor="start" x="99.7179" y="-453.2296" font-family="Helvetica,sans-Serif" font-style="oblique" font-size="10.00" fill="#000000">INT</text>
</g>
<!-- object -->
<g id="node4" class="node">
<title>object</title>
<polygon fill="#dddddd" stroke="transparent" points="242,-457.8296 242,-479.8296 362,-479.8296 362,-457.8296 242,-457.8296"/>
<polygon fill="none" stroke="#000000" points="242,-457.8296 242,-479.8296 362,-479.8296 362,-457.8296 242,-457.8296"/>
<text text-anchor="start" x="284.8948" y="-464.2296" font-family="Times,serif" font-size="14.00" fill="#000000">object</text>
<polygon fill="none" stroke="#000000" points="242,-435.8296 242,-457.8296 362,-457.8296 362,-435.8296 242,-435.8296"/>
<text text-anchor="start" x="267.8974" y="-443.2296" font-family="Times,serif" font-size="14.00" fill="#000000">idObject:</text>
<text text-anchor="start" x="319.9956" y="-443.2296" font-family="Helvetica,sans-Serif" font-style="oblique" font-size="10.00" fill="#000000">INT</text>
<polygon fill="none" stroke="#000000" points="242,-413.8296 242,-435.8296 362,-435.8296 362,-413.8296 242,-413.8296"/>
<text text-anchor="start" x="260.4533" y="-421.2296" font-family="Times,serif" font-size="14.00" fill="#000000">name:</text>
<text text-anchor="start" x="294.6637" y="-421.2296" font-family="Helvetica,sans-Serif" font-style="oblique" font-size="10.00" fill="#000000">VARCHAR</text>
<polygon fill="none" stroke="#000000" points="242,-391.8296 242,-413.8296 362,-413.8296 362,-391.8296 242,-391.8296"/>
<text text-anchor="start" x="266.727" y="-399.2296" font-family="Times,serif" font-size="14.00" fill="#000000">idEngine:</text>
<text text-anchor="start" x="321.166" y="-399.2296" font-family="Helvetica,sans-Serif" font-style="oblique" font-size="10.00" fill="#000000">INT</text>
<polygon fill="none" stroke="#000000" points="242,-369.8296 242,-391.8296 362,-391.8296 362,-369.8296 242,-369.8296"/>
<text text-anchor="start" x="244.5101" y="-377.2296" font-family="Times,serif" font-size="14.00" fill="#000000">description:</text>
<text text-anchor="start" x="310.6069" y="-377.2296" font-family="Helvetica,sans-Serif" font-style="oblique" font-size="10.00" fill="#000000">VARCHAR</text>
</g>
<!-- containmentRel&#45;&gt;object -->
<g id="edge1" class="edge">
<title>containmentRel:idContainer-&gt;object:idobject</title>
<path fill="none" stroke="#444444" stroke-dasharray="5,2" d="M136,-478.8296C181.6548,-478.8296 191.4763,-451.2874 231.952,-447.3067"/>
<polygon fill="#444444" stroke="#444444" points="242.1661,-450.3256 232.0113,-447.304 241.8339,-443.3335 242.1661,-450.3256"/>
</g>
<!-- containmentRel&#45;&gt;object -->
<g id="edge2" class="edge">
<title>containmentRel:idContainee-&gt;object:idobject</title>
<path fill="none" stroke="#444444" stroke-dasharray="5,2" d="M136,-456.8296C179.6234,-456.8296 192.6853,-448.331 231.5335,-447.0031"/>
<polygon fill="#444444" stroke="#444444" points="242.0581,-450.3291 232.0014,-446.9955 241.9419,-443.33 242.0581,-450.3291"/>
</g>
<!-- engine -->
<g id="node2" class="node">
<title>engine</title>
<polygon fill="#dddddd" stroke="transparent" points="468,-397.8296 468,-419.8296 568,-419.8296 568,-397.8296 468,-397.8296"/>
<polygon fill="none" stroke="#000000" points="468,-397.8296 468,-419.8296 568,-419.8296 568,-397.8296 468,-397.8296"/>
<text text-anchor="start" x="499.3401" y="-404.2296" font-family="Times,serif" font-size="14.00" fill="#000000">engine</text>
<polygon fill="none" stroke="#000000" points="468,-375.8296 468,-397.8296 568,-397.8296 568,-375.8296 468,-375.8296"/>
<text text-anchor="start" x="482.727" y="-383.2296" font-family="Times,serif" font-size="14.00" fill="#000000">idEngine:</text>
<text text-anchor="start" x="537.166" y="-383.2296" font-family="Helvetica,sans-Serif" font-style="oblique" font-size="10.00" fill="#000000">INT</text>
<polygon fill="none" stroke="#000000" points="468,-353.8296 468,-375.8296 568,-375.8296 568,-353.8296 468,-353.8296"/>
<text text-anchor="start" x="470.6744" y="-361.2296" font-family="Times,serif" font-size="14.00" fill="#000000">idEnginetype:</text>
<text text-anchor="start" x="549.2186" y="-361.2296" font-family="Helvetica,sans-Serif" font-style="oblique" font-size="10.00" fill="#000000">INT</text>
<polygon fill="none" stroke="#000000" points="468,-331.8296 468,-353.8296 568,-353.8296 568,-331.8296 468,-331.8296"/>
<text text-anchor="start" x="488.1175" y="-339.2296" font-family="Times,serif" font-size="14.00" fill="#000000">specs:</text>
<text text-anchor="start" x="522.3265" y="-339.2296" font-family="Helvetica,sans-Serif" font-style="oblique" font-size="10.00" fill="#000000">TEXT</text>
</g>
<!-- enginetype -->
<g id="node3" class="node">
<title>enginetype</title>
<polygon fill="#dddddd" stroke="transparent" points="674,-365.8296 674,-387.8296 794,-387.8296 794,-365.8296 674,-365.8296"/>
<polygon fill="none" stroke="#000000" points="674,-365.8296 674,-387.8296 794,-387.8296 794,-365.8296 674,-365.8296"/>
<text text-anchor="start" x="703.2875" y="-372.2296" font-family="Times,serif" font-size="14.00" fill="#000000">enginetype</text>
<polygon fill="none" stroke="#000000" points="674,-343.8296 674,-365.8296 794,-365.8296 794,-343.8296 674,-343.8296"/>
<text text-anchor="start" x="686.6744" y="-351.2296" font-family="Times,serif" font-size="14.00" fill="#000000">idEnginetype:</text>
<text text-anchor="start" x="765.2186" y="-351.2296" font-family="Helvetica,sans-Serif" font-style="oblique" font-size="10.00" fill="#000000">INT</text>
<polygon fill="none" stroke="#000000" points="674,-321.8296 674,-343.8296 794,-343.8296 794,-321.8296 674,-321.8296"/>
<text text-anchor="start" x="692.4533" y="-329.2296" font-family="Times,serif" font-size="14.00" fill="#000000">name:</text>
<text text-anchor="start" x="726.6637" y="-329.2296" font-family="Helvetica,sans-Serif" font-style="oblique" font-size="10.00" fill="#000000">VARCHAR</text>
<polygon fill="none" stroke="#000000" points="674,-299.8296 674,-321.8296 794,-321.8296 794,-299.8296 674,-299.8296"/>
<text text-anchor="start" x="676.5101" y="-307.2296" font-family="Times,serif" font-size="14.00" fill="#000000">description:</text>
<text text-anchor="start" x="742.6069" y="-307.2296" font-family="Helvetica,sans-Serif" font-style="oblique" font-size="10.00" fill="#000000">VARCHAR</text>
</g>
<!-- engine&#45;&gt;enginetype -->
<g id="edge3" class="edge">
<title>engine:idEnginetype-&gt;enginetype:idenginetype</title>
<path fill="none" stroke="#444444" stroke-dasharray="5,2" d="M568,-364.8296C611.6234,-364.8296 624.6853,-356.331 663.5335,-355.0031"/>
<polygon fill="#444444" stroke="#444444" points="674.0581,-358.3291 664.0014,-354.9955 673.9419,-351.33 674.0581,-358.3291"/>
</g>
<!-- object&#45;&gt;engine -->
<g id="edge4" class="edge">
<title>object:idEngine-&gt;engine:idengine</title>
<path fill="none" stroke="#444444" stroke-dasharray="5,2" d="M362,-402.8296C406.1086,-402.8296 418.5619,-389.1164 457.9717,-387.0809"/>
<polygon fill="#444444" stroke="#444444" points="468.0877,-390.3285 458.0031,-387.0802 467.9123,-383.3307 468.0877,-390.3285"/>
</g>
<!-- permission -->
<g id="node5" class="node">
<title>permission</title>
<polygon fill="#dddddd" stroke="transparent" points="23,-343.8296 23,-365.8296 122,-365.8296 122,-343.8296 23,-343.8296"/>
<polygon fill="none" stroke="#000000" points="23,-343.8296 23,-365.8296 122,-365.8296 122,-343.8296 23,-343.8296"/>
<text text-anchor="start" x="41.7819" y="-350.2296" font-family="Times,serif" font-size="14.00" fill="#000000">permission</text>
<polygon fill="none" stroke="#000000" points="23,-321.8296 23,-343.8296 122,-343.8296 122,-321.8296 23,-321.8296"/>
<text text-anchor="start" x="25.9465" y="-329.2296" font-family="Times,serif" font-size="14.00" fill="#000000">idPermission:</text>
<text text-anchor="start" x="102.9465" y="-329.2296" font-family="Helvetica,sans-Serif" font-style="oblique" font-size="10.00" fill="#000000">INT</text>
<polygon fill="none" stroke="#000000" points="23,-299.8296 23,-321.8296 122,-321.8296 122,-299.8296 23,-299.8296"/>
<text text-anchor="start" x="43.835" y="-307.2296" font-family="Times,serif" font-size="14.00" fill="#000000">idRole:</text>
<text text-anchor="start" x="85.058" y="-307.2296" font-family="Helvetica,sans-Serif" font-style="oblique" font-size="10.00" fill="#000000">INT</text>
<polygon fill="none" stroke="#000000" points="23,-277.8296 23,-299.8296 122,-299.8296 122,-277.8296 23,-277.8296"/>
<text text-anchor="start" x="38.3974" y="-285.2296" font-family="Times,serif" font-size="14.00" fill="#000000">idObject:</text>
<text text-anchor="start" x="90.4956" y="-285.2296" font-family="Helvetica,sans-Serif" font-style="oblique" font-size="10.00" fill="#000000">INT</text>
</g>
<!-- permission&#45;&gt;object -->
<g id="edge6" class="edge">
<title>permission:idObject-&gt;object:idobject</title>
<path fill="none" stroke="#444444" stroke-dasharray="5,2" d="M122,-288.8296C206.5627,-288.8296 158.2006,-434.1344 231.8593,-446.054"/>
<polygon fill="#444444" stroke="#444444" points="241.7331,-450.3194 232.0291,-446.0669 242.2669,-443.3397 241.7331,-450.3194"/>
</g>
<!-- role -->
<g id="node6" class="node">
<title>role</title>
<polygon fill="#dddddd" stroke="transparent" points="242,-261.8296 242,-283.8296 362,-283.8296 362,-261.8296 242,-261.8296"/>
<polygon fill="none" stroke="#000000" points="242,-261.8296 242,-283.8296 362,-283.8296 362,-261.8296 242,-261.8296"/>
<text text-anchor="start" x="291.1171" y="-268.2296" font-family="Times,serif" font-size="14.00" fill="#000000">role</text>
<polygon fill="none" stroke="#000000" points="242,-239.8296 242,-261.8296 362,-261.8296 362,-239.8296 242,-239.8296"/>
<text text-anchor="start" x="273.335" y="-247.2296" font-family="Times,serif" font-size="14.00" fill="#000000">idRole:</text>
<text text-anchor="start" x="314.558" y="-247.2296" font-family="Helvetica,sans-Serif" font-style="oblique" font-size="10.00" fill="#000000">INT</text>
<polygon fill="none" stroke="#000000" points="242,-217.8296 242,-239.8296 362,-239.8296 362,-217.8296 242,-217.8296"/>
<text text-anchor="start" x="260.4533" y="-225.2296" font-family="Times,serif" font-size="14.00" fill="#000000">name:</text>
<text text-anchor="start" x="294.6637" y="-225.2296" font-family="Helvetica,sans-Serif" font-style="oblique" font-size="10.00" fill="#000000">VARCHAR</text>
<polygon fill="none" stroke="#000000" points="242,-195.8296 242,-217.8296 362,-217.8296 362,-195.8296 242,-195.8296"/>
<text text-anchor="start" x="244.5101" y="-203.2296" font-family="Times,serif" font-size="14.00" fill="#000000">description:</text>
<text text-anchor="start" x="310.6069" y="-203.2296" font-family="Helvetica,sans-Serif" font-style="oblique" font-size="10.00" fill="#000000">VARCHAR</text>
</g>
<!-- permission&#45;&gt;role -->
<g id="edge5" class="edge">
<title>permission:idRole-&gt;role:idrole</title>
<path fill="none" stroke="#444444" stroke-dasharray="5,2" d="M122,-310.8296C178.0182,-310.8296 182.0657,-257.8752 231.7905,-251.4628"/>
<polygon fill="#444444" stroke="#444444" points="242.2167,-254.3228 232.0192,-251.4487 241.7833,-247.3363 242.2167,-254.3228"/>
</g>
<!-- user -->
<g id="node7" class="node">
<title>user</title>
<polygon fill="#dddddd" stroke="transparent" points="246,-92.8296 246,-114.8296 358,-114.8296 358,-92.8296 246,-92.8296"/>
<polygon fill="none" stroke="#000000" points="246,-92.8296 246,-114.8296 358,-114.8296 358,-92.8296 246,-92.8296"/>
<text text-anchor="start" x="290.3401" y="-99.2296" font-family="Times,serif" font-size="14.00" fill="#000000">user</text>
<polygon fill="none" stroke="#000000" points="246,-70.8296 246,-92.8296 358,-92.8296 358,-70.8296 246,-70.8296"/>
<text text-anchor="start" x="273.3427" y="-78.2296" font-family="Times,serif" font-size="14.00" fill="#000000">idUser:</text>
<text text-anchor="start" x="314.5503" y="-78.2296" font-family="Helvetica,sans-Serif" font-style="oblique" font-size="10.00" fill="#000000">INT</text>
<polygon fill="none" stroke="#000000" points="246,-48.8296 246,-70.8296 358,-70.8296 358,-48.8296 246,-48.8296"/>
<text text-anchor="start" x="248.7934" y="-56.2296" font-family="Times,serif" font-size="14.00" fill="#000000">username:</text>
<text text-anchor="start" x="306.3236" y="-56.2296" font-family="Helvetica,sans-Serif" font-style="oblique" font-size="10.00" fill="#000000">VARCHAR</text>
<polygon fill="none" stroke="#000000" points="246,-26.8296 246,-48.8296 358,-48.8296 358,-26.8296 246,-26.8296"/>
<text text-anchor="start" x="249.1777" y="-34.2296" font-family="Times,serif" font-size="14.00" fill="#000000">password:</text>
<text text-anchor="start" x="305.9393" y="-34.2296" font-family="Helvetica,sans-Serif" font-style="oblique" font-size="10.00" fill="#000000">VARCHAR</text>
</g>
<!-- userRoleRel -->
<g id="node8" class="node">
<title>userRoleRel</title>
<polygon fill="#dddddd" stroke="transparent" points="18,-174.8296 18,-196.8296 127,-196.8296 127,-174.8296 18,-174.8296"/>
<polygon fill="none" stroke="#000000" points="18,-174.8296 18,-196.8296 127,-196.8296 127,-174.8296 18,-174.8296"/>
<text text-anchor="start" x="37.8983" y="-181.2296" font-family="Times,serif" font-size="14.00" fill="#000000">userRoleRel</text>
<polygon fill="none" stroke="#000000" points="18,-152.8296 18,-174.8296 127,-174.8296 127,-152.8296 18,-152.8296"/>
<text text-anchor="start" x="20.9009" y="-160.2296" font-family="Times,serif" font-size="14.00" fill="#000000">idUserRoleRel:</text>
<text text-anchor="start" x="107.9921" y="-160.2296" font-family="Helvetica,sans-Serif" font-style="oblique" font-size="10.00" fill="#000000">INT</text>
<polygon fill="none" stroke="#000000" points="18,-130.8296 18,-152.8296 127,-152.8296 127,-130.8296 18,-130.8296"/>
<text text-anchor="start" x="43.835" y="-138.2296" font-family="Times,serif" font-size="14.00" fill="#000000">idRole:</text>
<text text-anchor="start" x="85.058" y="-138.2296" font-family="Helvetica,sans-Serif" font-style="oblique" font-size="10.00" fill="#000000">INT</text>
<polygon fill="none" stroke="#000000" points="18,-108.8296 18,-130.8296 127,-130.8296 127,-108.8296 18,-108.8296"/>
<text text-anchor="start" x="43.8427" y="-116.2296" font-family="Times,serif" font-size="14.00" fill="#000000">idUser:</text>
<text text-anchor="start" x="85.0503" y="-116.2296" font-family="Helvetica,sans-Serif" font-style="oblique" font-size="10.00" fill="#000000">INT</text>
</g>
<!-- userRoleRel&#45;&gt;role -->
<g id="edge7" class="edge">
<title>userRoleRel:idRole-&gt;role:idrole</title>
<path fill="none" stroke="#444444" stroke-dasharray="5,2" d="M127,-141.8296C193.8456,-141.8296 173.9548,-240.0403 231.9912,-250.0149"/>
<polygon fill="#444444" stroke="#444444" points="241.716,-254.318 232.033,-250.0182 242.284,-247.3411 241.716,-254.318"/>
</g>
<!-- userRoleRel&#45;&gt;user -->
<g id="edge8" class="edge">
<title>userRoleRel:idUser-&gt;user:iduser</title>
<path fill="none" stroke="#444444" stroke-dasharray="5,2" d="M127,-119.8296C178.9416,-119.8296 189.2563,-86.5701 235.8319,-82.2828"/>
<polygon fill="#444444" stroke="#444444" points="246.1559,-85.3261 236.0099,-82.2749 245.8441,-78.333 246.1559,-85.3261"/>
</g>
</g>
</svg>