<?xml version="1.0" encoding="UTF-8" standalone="no"?><!DOCTYPE svg PUBLIC "-//W3C//DTD SVG 1.1//EN" "http://www.w3.org/Graphics/SVG/1.1/DTD/svg11.dtd"><!-- Generated by graphviz version 2.40.1 (20161225.0304)
 --><!-- Title: Database Structure Pages: 1 --><svg xmlns="http://www.w3.org/2000/svg" xmlns:xlink="http://www.w3.org/1999/xlink" width="810pt" height="594pt" viewBox="0.00 0.00 810.00 594.20">
<g id="graph0" class="graph" transform="scale(1 1) rotate(0) translate(4 590.2)">
<title>Database Structure</title>
<polygon fill="#ffffff" stroke="transparent" points="-4,4 -4,-590.2 806,-590.2 806,4 -4,4"/>
<text text-anchor="middle" x="401" y="-569.6" font-family="Helvetica,sans-Serif" font-size="14.00" fill="#000000">ER Diagram: ipsman</text>
<!-- containmentRel -->
<g id="node1" class="node">
<title>containmentRel</title>
<polygon fill="#dddddd" stroke="transparent" points="8,-513.9672 8,-535.9672 136,-535.9672 136,-513.9672 8,-513.9672"/>
<polygon fill="none" stroke="#000000" points="8,-513.9672 8,-535.9672 136,-535.9672 136,-513.9672 8,-513.9672"/>
<text text-anchor="start" x="27.676" y="-520.3672" font-family="Times,serif" font-size="14.00" fill="#000000">containmentRel</text>
<polygon fill="none" stroke="#000000" points="8,-491.9672 8,-513.9672 136,-513.9672 136,-491.9672 8,-491.9672"/>
<text text-anchor="start" x="10.6709" y="-499.3672" font-family="Times,serif" font-size="14.00" fill="#000000">idContainmentRel:</text>
<text text-anchor="start" x="117.2221" y="-499.3672" font-family="Helvetica,sans-Serif" font-style="oblique" font-size="10.00" fill="#000000">INT</text>
<polygon fill="none" stroke="#000000" points="8,-469.9672 8,-491.9672 136,-491.9672 136,-469.9672 8,-469.9672"/>
<text text-anchor="start" x="28.9521" y="-477.3672" font-family="Times,serif" font-size="14.00" fill="#000000">idContainer:</text>
<text text-anchor="start" x="98.9409" y="-477.3672" font-family="Helvetica,sans-Serif" font-style="oblique" font-size="10.00" fill="#000000">INT</text>
<polygon fill="none" stroke="#000000" points="8,-447.9672 8,-469.9672 136,-469.9672 136,-447.9672 8,-447.9672"/>
<text text-anchor="start" x="28.1751" y="-455.3672" font-family="Times,serif" font-size="14.00" fill="#000000">idContainee:</text>
<text text-anchor="start" x="99.7179" y="-455.3672" font-family="Helvetica,sans-Serif" font-style="oblique" font-size="10.00" fill="#000000">INT</text>
</g>
<!-- object -->
<g id="node4" class="node">
<title>object</title>
<polygon fill="#dddddd" stroke="transparent" points="242,-445.9672 242,-467.9672 362,-467.9672 362,-445.9672 242,-445.9672"/>
<polygon fill="none" stroke="#000000" points="242,-445.9672 242,-467.9672 362,-467.9672 362,-445.9672 242,-445.9672"/>
<text text-anchor="start" x="284.8948" y="-452.3672" font-family="Times,serif" font-size="14.00" fill="#000000">object</text>
<polygon fill="none" stroke="#000000" points="242,-423.9672 242,-445.9672 362,-445.9672 362,-423.9672 242,-423.9672"/>
<text text-anchor="start" x="267.8974" y="-431.3672" font-family="Times,serif" font-size="14.00" fill="#000000">idObject:</text>
<text text-anchor="start" x="319.9956" y="-431.3672" font-family="Helvetica,sans-Serif" font-style="oblique" font-size="10.00" fill="#000000">INT</text>
<polygon fill="none" stroke="#000000" points="242,-401.9672 242,-423.9672 362,-423.9672 362,-401.9672 242,-401.9672"/>
<text text-anchor="start" x="260.4533" y="-409.3672" font-family="Times,serif" font-size="14.00" fill="#000000">name:</text>
<text text-anchor="start" x="294.6637" y="-409.3672" font-family="Helvetica,sans-Serif" font-style="oblique" font-size="10.00" fill="#000000">VARCHAR</text>
<polygon fill="none" stroke="#000000" points="242,-379.9672 242,-401.9672 362,-401.9672 362,-379.9672 242,-379.9672"/>
<text text-anchor="start" x="266.727" y="-387.3672" font-family="Times,serif" font-size="14.00" fill="#000000">idEngine:</text>
<text text-anchor="start" x="321.166" y="-387.3672" font-family="Helvetica,sans-Serif" font-style="oblique" font-size="10.00" fill="#000000">INT</text>
<polygon fill="none" stroke="#000000" points="242,-357.9672 242,-379.9672 362,-379.9672 362,-357.9672 242,-357.9672"/>
<text text-anchor="start" x="244.5101" y="-365.3672" font-family="Times,serif" font-size="14.00" fill="#000000">description:</text>
<text text-anchor="start" x="310.6069" y="-365.3672" font-family="Helvetica,sans-Serif" font-style="oblique" font-size="10.00" fill="#000000">VARCHAR</text>
</g>
<!-- containmentRel&#45;&gt;object -->
<g id="edge1" class="edge">
<title>containmentRel:idContainer-&gt;object:idobject</title>
<path fill="none" stroke="#444444" stroke-dasharray="5,2" d="M136,-480.9672C183.745,-480.9672 189.944,-441.2085 231.8466,-435.6174"/>
<polygon fill="#444444" stroke="#444444" points="242.2237,-438.46 232.0204,-435.6064 241.7763,-431.4743 242.2237,-438.46"/>
</g>
<!-- containmentRel&#45;&gt;object -->
<g id="edge2" class="edge">
<title>containmentRel:idContainee-&gt;object:idobject</title>
<path fill="none" stroke="#444444" stroke-dasharray="5,2" d="M136,-458.9672C180.7185,-458.9672 192.0878,-438.3975 231.8561,-435.3442"/>
<polygon fill="#444444" stroke="#444444" points="242.13,-438.4648 232.0069,-435.3387 241.87,-431.4696 242.13,-438.4648"/>
</g>
<!-- engine -->
<g id="node2" class="node">
<title>engine</title>
<polygon fill="#dddddd" stroke="transparent" points="468,-387.9672 468,-409.9672 568,-409.9672 568,-387.9672 468,-387.9672"/>
<polygon fill="none" stroke="#000000" points="468,-387.9672 468,-409.9672 568,-409.9672 568,-387.9672 468,-387.9672"/>
<text text-anchor="start" x="499.3401" y="-394.3672" font-family="Times,serif" font-size="14.00" fill="#000000">engine</text>
<polygon fill="none" stroke="#000000" points="468,-365.9672 468,-387.9672 568,-387.9672 568,-365.9672 468,-365.9672"/>
<text text-anchor="start" x="482.727" y="-373.3672" font-family="Times,serif" font-size="14.00" fill="#000000">idEngine:</text>
<text text-anchor="start" x="537.166" y="-373.3672" font-family="Helvetica,sans-Serif" font-style="oblique" font-size="10.00" fill="#000000">INT</text>
<polygon fill="none" stroke="#000000" points="468,-343.9672 468,-365.9672 568,-365.9672 568,-343.9672 468,-343.9672"/>
<text text-anchor="start" x="470.6744" y="-351.3672" font-family="Times,serif" font-size="14.00" fill="#000000">idEnginetype:</text>
<text text-anchor="start" x="549.2186" y="-351.3672" font-family="Helvetica,sans-Serif" font-style="oblique" font-size="10.00" fill="#000000">INT</text>
<polygon fill="none" stroke="#000000" points="468,-321.9672 468,-343.9672 568,-343.9672 568,-321.9672 468,-321.9672"/>
<text text-anchor="start" x="488.1175" y="-329.3672" font-family="Times,serif" font-size="14.00" fill="#000000">specs:</text>
<text text-anchor="start" x="522.3265" y="-329.3672" font-family="Helvetica,sans-Serif" font-style="oblique" font-size="10.00" fill="#000000">TEXT</text>
</g>
<!-- enginetype -->
<g id="node3" class="node">
<title>enginetype</title>
<polygon fill="#dddddd" stroke="transparent" points="674,-355.9672 674,-377.9672 794,-377.9672 794,-355.9672 674,-355.9672"/>
<polygon fill="none" stroke="#000000" points="674,-355.9672 674,-377.9672 794,-377.9672 794,-355.9672 674,-355.9672"/>
<text text-anchor="start" x="703.2875" y="-362.3672" font-family="Times,serif" font-size="14.00" fill="#000000">enginetype</text>
<polygon fill="none" stroke="#000000" points="674,-333.9672 674,-355.9672 794,-355.9672 794,-333.9672 674,-333.9672"/>
<text text-anchor="start" x="686.6744" y="-341.3672" font-family="Times,serif" font-size="14.00" fill="#000000">idEnginetype:</text>
<text text-anchor="start" x="765.2186" y="-341.3672" font-family="Helvetica,sans-Serif" font-style="oblique" font-size="10.00" fill="#000000">INT</text>
<polygon fill="none" stroke="#000000" points="674,-311.9672 674,-333.9672 794,-333.9672 794,-311.9672 674,-311.9672"/>
<text text-anchor="start" x="692.4533" y="-319.3672" font-family="Times,serif" font-size="14.00" fill="#000000">name:</text>
<text text-anchor="start" x="726.6637" y="-319.3672" font-family="Helvetica,sans-Serif" font-style="oblique" font-size="10.00" fill="#000000">VARCHAR</text>
<polygon fill="none" stroke="#000000" points="674,-289.9672 674,-311.9672 794,-311.9672 794,-289.9672 674,-289.9672"/>
<text text-anchor="start" x="676.5101" y="-297.3672" font-family="Times,serif" font-size="14.00" fill="#000000">description:</text>
<text text-anchor="start" x="742.6069" y="-297.3672" font-family="Helvetica,sans-Serif" font-style="oblique" font-size="10.00" fill="#000000">VARCHAR</text>
</g>
<!-- engine&#45;&gt;enginetype -->
<g id="edge3" class="edge">
<title>engine:idEnginetype-&gt;enginetype:idenginetype</title>
<path fill="none" stroke="#444444" stroke-dasharray="5,2" d="M568,-354.9672C611.6234,-354.9672 624.6853,-346.4686 663.5335,-345.1407"/>
<polygon fill="#444444" stroke="#444444" points="674.0581,-348.4667 664.0014,-345.1331 673.9419,-341.4677 674.0581,-348.4667"/>
</g>
<!-- object&#45;&gt;engine -->
<g id="edge4" class="edge">
<title>object:idEngine-&gt;engine:idengine</title>
<path fill="none" stroke="#444444" stroke-dasharray="5,2" d="M362,-390.9672C405.9933,-390.9672 418.6516,-378.9682 457.9936,-377.1871"/>
<polygon fill="#444444" stroke="#444444" points="468.0769,-380.4663 458.0024,-377.187 467.9231,-373.468 468.0769,-380.4663"/>
</g>
<!-- permission -->
<g id="node5" class="node">
<title>permission</title>
<polygon fill="#dddddd" stroke="transparent" points="23,-344.9672 23,-366.9672 122,-366.9672 122,-344.9672 23,-344.9672"/>
<polygon fill="none" stroke="#000000" points="23,-344.9672 23,-366.9672 122,-366.9672 122,-344.9672 23,-344.9672"/>
<text text-anchor="start" x="41.7819" y="-351.3672" font-family="Times,serif" font-size="14.00" fill="#000000">permission</text>
<polygon fill="none" stroke="#000000" points="23,-322.9672 23,-344.9672 122,-344.9672 122,-322.9672 23,-322.9672"/>
<text text-anchor="start" x="25.9465" y="-330.3672" font-family="Times,serif" font-size="14.00" fill="#000000">idPermission:</text>
<text text-anchor="start" x="102.9465" y="-330.3672" font-family="Helvetica,sans-Serif" font-style="oblique" font-size="10.00" fill="#000000">INT</text>
<polygon fill="none" stroke="#000000" points="23,-300.9672 23,-322.9672 122,-322.9672 122,-300.9672 23,-300.9672"/>
<text text-anchor="start" x="43.835" y="-308.3672" font-family="Times,serif" font-size="14.00" fill="#000000">idRole:</text>
<text text-anchor="start" x="85.058" y="-308.3672" font-family="Helvetica,sans-Serif" font-style="oblique" font-size="10.00" fill="#000000">INT</text>
<polygon fill="none" stroke="#000000" points="23,-278.9672 23,-300.9672 122,-300.9672 122,-278.9672 23,-278.9672"/>
<text text-anchor="start" x="38.3974" y="-286.3672" font-family="Times,serif" font-size="14.00" fill="#000000">idObject:</text>
<text text-anchor="start" x="90.4956" y="-286.3672" font-family="Helvetica,sans-Serif" font-style="oblique" font-size="10.00" fill="#000000">INT</text>
<polygon fill="none" stroke="#000000" points="23,-256.9672 23,-278.9672 122,-278.9672 122,-256.9672 23,-256.9672"/>
<text text-anchor="start" x="29.008" y="-264.3672" font-family="Times,serif" font-size="14.00" fill="#000000">action:</text>
<text text-anchor="start" x="67.109" y="-264.3672" font-family="Helvetica,sans-Serif" font-style="oblique" font-size="10.00" fill="#000000">VARCHAR</text>
</g>
<!-- permission&#45;&gt;object -->
<g id="edge6" class="edge">
<title>permission:idObject-&gt;object:idobject</title>
<path fill="none" stroke="#444444" stroke-dasharray="5,2" d="M122,-289.9672C202.0569,-289.9672 162.172,-422.774 231.9214,-434.187"/>
<polygon fill="#444444" stroke="#444444" points="241.7299,-438.4567 232.0298,-434.1953 242.2701,-431.4776 241.7299,-438.4567"/>
</g>
<!-- role -->
<g id="node6" class="node">
<title>role</title>
<polygon fill="#dddddd" stroke="transparent" points="242,-254.9672 242,-276.9672 362,-276.9672 362,-254.9672 242,-254.9672"/>
<polygon fill="none" stroke="#000000" points="242,-254.9672 242,-276.9672 362,-276.9672 362,-254.9672 242,-254.9672"/>
<text text-anchor="start" x="291.1171" y="-261.3672" font-family="Times,serif" font-size="14.00" fill="#000000">role</text>
<polygon fill="none" stroke="#000000" points="242,-232.9672 242,-254.9672 362,-254.9672 362,-232.9672 242,-232.9672"/>
<text text-anchor="start" x="273.335" y="-240.3672" font-family="Times,serif" font-size="14.00" fill="#000000">idRole:</text>
<text text-anchor="start" x="314.558" y="-240.3672" font-family="Helvetica,sans-Serif" font-style="oblique" font-size="10.00" fill="#000000">INT</text>
<polygon fill="none" stroke="#000000" points="242,-210.9672 242,-232.9672 362,-232.9672 362,-210.9672 242,-210.9672"/>
<text text-anchor="start" x="260.4533" y="-218.3672" font-family="Times,serif" font-size="14.00" fill="#000000">name:</text>
<text text-anchor="start" x="294.6637" y="-218.3672" font-family="Helvetica,sans-Serif" font-style="oblique" font-size="10.00" fill="#000000">VARCHAR</text>
<polygon fill="none" stroke="#000000" points="242,-188.9672 242,-210.9672 362,-210.9672 362,-188.9672 242,-188.9672"/>
<text text-anchor="start" x="244.5101" y="-196.3672" font-family="Times,serif" font-size="14.00" fill="#000000">description:</text>
<text text-anchor="start" x="310.6069" y="-196.3672" font-family="Helvetica,sans-Serif" font-style="oblique" font-size="10.00" fill="#000000">VARCHAR</text>
</g>
<!-- permission&#45;&gt;role -->
<g id="edge5" class="edge">
<title>permission:idRole-&gt;role:idrole</title>
<path fill="none" stroke="#444444" stroke-dasharray="5,2" d="M122,-311.9672C179.7093,-311.9672 180.7844,-251.7025 231.8569,-244.6402"/>
<polygon fill="#444444" stroke="#444444" points="242.2318,-247.4595 232.0219,-244.6293 241.7682,-240.4749 242.2318,-247.4595"/>
</g>
<!-- user -->
<g id="node7" class="node">
<title>user</title>
<polygon fill="#dddddd" stroke="transparent" points="246,-90.9672 246,-112.9672 358,-112.9672 358,-90.9672 246,-90.9672"/>
<polygon fill="none" stroke="#000000" points="246,-90.9672 246,-112.9672 358,-112.9672 358,-90.9672 246,-90.9672"/>
<text text-anchor="start" x="290.3401" y="-97.3672" font-family="Times,serif" font-size="14.00" fill="#000000">user</text>
<polygon fill="none" stroke="#000000" points="246,-68.9672 246,-90.9672 358,-90.9672 358,-68.9672 246,-68.9672"/>
<text text-anchor="start" x="273.3427" y="-76.3672" font-family="Times,serif" font-size="14.00" fill="#000000">idUser:</text>
<text text-anchor="start" x="314.5503" y="-76.3672" font-family="Helvetica,sans-Serif" font-style="oblique" font-size="10.00" fill="#000000">INT</text>
<polygon fill="none" stroke="#000000" points="246,-46.9672 246,-68.9672 358,-68.9672 358,-46.9672 246,-46.9672"/>
<text text-anchor="start" x="248.7934" y="-54.3672" font-family="Times,serif" font-size="14.00" fill="#000000">username:</text>
<text text-anchor="start" x="306.3236" y="-54.3672" font-family="Helvetica,sans-Serif" font-style="oblique" font-size="10.00" fill="#000000">VARCHAR</text>
<polygon fill="none" stroke="#000000" points="246,-24.9672 246,-46.9672 358,-46.9672 358,-24.9672 246,-24.9672"/>
<text text-anchor="start" x="249.1777" y="-32.3672" font-family="Times,serif" font-size="14.00" fill="#000000">password:</text>
<text text-anchor="start" x="305.9393" y="-32.3672" font-family="Helvetica,sans-Serif" font-style="oblique" font-size="10.00" fill="#000000">VARCHAR</text>
</g>
<!-- userRoleRel -->
<g id="node8" class="node">
<title>userRoleRel</title>
<polygon fill="#dddddd" stroke="transparent" points="18,-153.9672 18,-175.9672 127,-175.9672 127,-153.9672 18,-153.9672"/>
<polygon fill="none" stroke="#000000" points="18,-153.9672 18,-175.9672 127,-175.9672 127,-153.9672 18,-153.9672"/>
<text text-anchor="start" x="37.8983" y="-160.3672" font-family="Times,serif" font-size="14.00" fill="#000000">userRoleRel</text>
<polygon fill="none" stroke="#000000" points="18,-131.9672 18,-153.9672 127,-153.9672 127,-131.9672 18,-131.9672"/>
<text text-anchor="start" x="20.9009" y="-139.3672" font-family="Times,serif" font-size="14.00" fill="#000000">idUserRoleRel:</text>
<text text-anchor="start" x="107.9921" y="-139.3672" font-family="Helvetica,sans-Serif" font-style="oblique" font-size="10.00" fill="#000000">INT</text>
<polygon fill="none" stroke="#000000" points="18,-109.9672 18,-131.9672 127,-131.9672 127,-109.9672 18,-109.9672"/>
<text text-anchor="start" x="43.835" y="-117.3672" font-family="Times,serif" font-size="14.00" fill="#000000">idRole:</text>
<text text-anchor="start" x="85.058" y="-117.3672" font-family="Helvetica,sans-Serif" font-style="oblique" font-size="10.00" fill="#000000">INT</text>
<polygon fill="none" stroke="#000000" points="18,-87.9672 18,-109.9672 127,-109.9672 127,-87.9672 18,-87.9672"/>
<text text-anchor="start" x="43.8427" y="-95.3672" font-family="Times,serif" font-size="14.00" fill="#000000">idUser:</text>
<text text-anchor="start" x="85.0503" y="-95.3672" font-family="Helvetica,sans-Serif" font-style="oblique" font-size="10.00" fill="#000000">INT</text>
</g>
<!-- userRoleRel&#45;&gt;role -->
<g id="edge7" class="edge">
<title>userRoleRel:idRole-&gt;role:idrole</title>
<path fill="none" stroke="#444444" stroke-dasharray="5,2" d="M127,-120.9672C198.1842,-120.9672 170.2869,-232.2487 231.7952,-243.1161"/>
<polygon fill="#444444" stroke="#444444" points="241.7091,-247.4551 232.0346,-243.1359 242.2909,-240.4793 241.7091,-247.4551"/>
</g>
<!-- userRoleRel&#45;&gt;user -->
<g id="edge8" class="edge">
<title>userRoleRel:idUser-&gt;user:iduser</title>
<path fill="none" stroke="#444444" stroke-dasharray="5,2" d="M127,-98.9672C177.0021,-98.9672 190.6793,-82.4068 235.857,-80.2074"/>
<polygon fill="#444444" stroke="#444444" points="246.0829,-83.4662 236.0028,-80.2041 245.9171,-76.4682 246.0829,-83.4662"/>
</g>
</g>
</svg>